<svg id="Layer_1" data-name="Layer 1" xmlns="http://www.w3.org/2000/svg" viewBox="0 0 25 25"><defs><style>.cls-2{fill:none;stroke:#fff;stroke-linecap:round;stroke-linejoin:round}</style></defs><path d="M21.36 13.94a9 9 0 01-17.07 2.23 9.22 9.22 0 011-1.49A6.5 6.5 0 0110 12.46a13.21 13.21 0 003.69.06 5.87 5.87 0 001.59-.78 3.92 3.92 0 013.81-.51 3.67 3.67 0 012.27 2.71z" fill="#fff" fill-rule="evenodd" opacity=".3"/><path class="cls-2" d="M17.33 4.92A9 9 0 004.92 7.66a9.1 9.1 0 00-1.31 3.52 9 9 0 0015.58 7.3 6.73 6.73 0 00.88-1.15 9 9 0 00.05-9.61"/><path id="polygon4" class="cls-2" d="M8.69 16.31l1.91-5.72 5.71-1.9-1.9 5.71-5.72 1.91z"/></svg>