<svg id="Layer_1" data-name="Layer 1" xmlns="http://www.w3.org/2000/svg" viewBox="0 0 25 25"><defs><style>.cls-1{fill:none;stroke:#fff;stroke-linecap:round;stroke-linejoin:round}</style></defs><g id="g7835"><path class="cls-1" d="M21.07 9.94a1.71 1.71 0 00-1.71-1.72H5.64a1.71 1.71 0 00-1.71 1.72v8.56a1.71 1.71 0 001.71 1.7h13.72a1.68 1.68 0 001-.31 1.66 1.66 0 00.73-1.38v-4.32"/><path id="path4-86" class="cls-1" d="M15.93 20.2V6.51a1.71 1.71 0 00-1.72-1.71h-3.42a1.71 1.71 0 00-1.72 1.71V20.2"/></g><path d="M20.48 19.57c-.05.11-.09.21-.14.31a1.68 1.68 0 01-1 .31h-13a4.42 4.42 0 011.09-3.7 4.38 4.38 0 011.65-1.27 4.84 4.84 0 012.32-.58 11.87 11.87 0 003.07 0 5.21 5.21 0 001.46-.64 3.21 3.21 0 013-.34c2.07.67 2.57 3.57 1.55 5.91z" fill="#fff" fill-rule="evenodd" opacity=".3"/></svg>