<svg id="Layer_1" data-name="Layer 1" xmlns="http://www.w3.org/2000/svg" viewBox="0 0 25 25"><defs><style>.cls-2{fill:none;stroke:#133f5d;stroke-linecap:round;stroke-linejoin:round}</style></defs><path d="M19.1 16.15a4.2 4.2 0 01-1.58.5c-1.68.09-2.95-.54-4.75.08s-2.72 2.8-6.16 2.11a3.49 3.49 0 01-1.13-.43v-.58a3.87 3.87 0 01.21-1.23 3.74 3.74 0 013.54-2.51h6.54a3.72 3.72 0 012.72 1.17 3.28 3.28 0 01.61.89z" fill-rule="evenodd" fill="#4198d3" opacity=".3"/><path class="cls-2" d="M13.94 20.59H5.48v-2.76a3.87 3.87 0 01.21-1.23 3.74 3.74 0 013.54-2.51h6.54a3.72 3.72 0 012.72 1.17 3.28 3.28 0 01.61.89 3.55 3.55 0 01.42 1.68v2.76h-1.83"/><path d="M15.66 10.15a3.73 3.73 0 01-6.33 0 3.72 3.72 0 016.33 0z" fill="#4198d3" opacity=".3"/><path class="cls-2" d="M16.24 8.15a3.69 3.69 0 01-.58 2 3.73 3.73 0 01-6.33 0 3.65 3.65 0 01-.58-2 3.71 3.71 0 01.36-1.59 3.74 3.74 0 016.89.21 3.5 3.5 0 01.24 1.38z"/></svg>